# Blender 4.2.0
# www.blender.org
mtllib box.mtl
o Cube
v -1.000000 -1.000000 1.000000
v -1.000000 1.000000 1.000000
v -1.000000 -1.000000 -1.000000
v -1.000000 1.000000 -1.000000
v 1.000000 -1.000000 1.000000
v 1.000000 1.000000 1.000000
v 1.000000 -1.000000 -1.000000
v 1.000000 1.000000 -1.000000
v -0.879720 1.000000 -0.879720
v -0.879719 -1.000000 -0.879719
v 0.879719 1.000000 -0.879719
v 0.879720 -1.000000 -0.879720
v 0.879720 1.000000 0.879720
v 0.879719 -1.000000 0.879719
v -0.879719 1.000000 0.879719
v -0.879720 -1.000000 0.879720
v -1.000000 -0.879720 0.879720
v -1.000000 0.879720 -0.879720
v -1.000000 0.879720 0.879720
v -1.000000 -0.879720 -0.879720
v 1.000000 0.879720 0.879720
v 1.000000 0.879720 -0.879720
v 1.000000 -0.879720 -0.879720
v 1.000000 -0.879720 0.879720
v 0.879719 -0.879720 0.879719
v 0.879720 0.879720 0.879720
v 0.879720 -0.879720 -0.879720
v 0.773906 -0.879720 -0.879720
v -0.773906 0.879720 -0.879720
v -0.879720 0.879720 -0.879720
v -0.879720 -0.879720 0.879720
v -0.773906 -0.879720 0.879720
v 0.773906 0.879720 0.879720
v -0.879720 -0.879720 -1.000000
v 0.879720 0.879720 -1.000000
v -0.879720 0.879720 -1.000000
v 0.879720 -0.879720 -1.000000
v -0.879720 0.879720 1.000000
v 0.879720 0.879720 1.000000
v 0.879720 -0.879720 1.000000
v -0.879720 -0.879720 1.000000
v 0.879720 0.879720 -0.879720
v -0.879720 -0.879720 -0.879720
v -0.879720 0.879720 0.879720
vn -1.0000 -0.0000 -0.0000
vn -0.0000 -0.0000 -1.0000
vn 1.0000 -0.0000 -0.0000
vn -0.0000 -0.0000 1.0000
vn -0.0000 -1.0000 -0.0000
vn -0.0000 1.0000 -0.0000
vt 0.609965 0.234965
vt 0.609965 0.015035
vt 0.625000 0.000000
vt 0.625000 0.250000
vt 0.375000 0.250000
vt 0.390035 0.234965
vt 0.390035 0.015035
vt 0.375000 0.000000
vt 0.609965 0.265035
vt 0.625000 0.500000
vt 0.375000 0.500000
vt 0.390035 0.484965
vt 0.609965 0.484965
vt 0.390035 0.265035
vt 0.390035 0.515035
vt 0.625000 0.750000
vt 0.375000 0.750000
vt 0.390035 0.734965
vt 0.609965 0.734965
vt 0.609965 0.515035
vt 0.625000 1.000000
vt 0.375000 1.000000
vt 0.390035 0.984965
vt 0.609965 0.984965
vt 0.609965 0.765035
vt 0.390035 0.765035
vt 0.140035 0.515035
vt 0.140035 0.734965
vt 0.125000 0.750000
vt 0.125000 0.500000
vt 0.359965 0.515035
vt 0.640035 0.515035
vt 0.640035 0.734965
vt 0.875000 0.500000
vt 0.859965 0.515035
vt 0.546812 0.750000
vt 0.546812 0.500000
vt 0.541181 0.500000
vt 0.541181 0.750000
vt 0.453188 0.500000
vt 0.453188 0.750000
vt 0.458819 0.750000
vt 0.458819 0.500000
vt 0.546812 0.250000
vt 0.541181 0.250000
vt 0.541181 0.265035
vt 0.458819 0.250000
vt 0.453188 0.250000
vt 0.458819 0.484965
vt 0.859965 0.734965
vt 0.875000 0.750000
vt 0.546812 0.000000
vt 0.541181 0.000000
vt 0.458819 0.000000
vt 0.453188 0.000000
vt 0.546812 1.000000
vt 0.541181 0.765035
vt 0.541181 1.000000
vt 0.453188 1.000000
vt 0.458819 1.000000
vt 0.458819 0.984965
vt 0.359965 0.734965
vt 0.458819 0.250000
vt 0.541181 0.500000
vt 0.458819 0.750000
vt 0.541181 1.000000
vt 0.541181 0.750000
vt 0.541181 0.000000
s 0
f 18/1/1 19/2/1 2/3/1 4/4/1 3/5/1 20/6/1
f 17/7/1 20/6/1 3/5/1 1/8/1 2/3/1 19/2/1
f 36/9/2 4/4/2 8/10/2 7/11/2 37/12/2 35/13/2
f 37/12/2 7/11/2 3/5/2 4/4/2 36/9/2 34/14/2
f 23/15/3 7/11/3 8/10/3 6/16/3 5/17/3 24/18/3 21/19/3 22/20/3
f 24/18/3 5/17/3 7/11/3 23/15/3
f 5/17/4 6/16/4 2/21/4 1/22/4 41/23/4 38/24/4 39/25/4 40/26/4
f 41/23/4 1/22/4 5/17/4 40/26/4
f 10/27/5 16/28/5 1/29/5 3/30/5 7/11/5 12/31/5
f 11/32/6 13/33/6 6/16/6 8/10/6 4/34/6 9/35/6
f 13/36/1 11/37/1 42/38/1 26/39/1
f 12/40/1 14/41/1 25/42/1 27/43/1
f 42/38/4 11/37/4 9/44/4 30/45/4 29/46/4
f 43/47/4 10/48/4 12/40/4 27/43/4 28/49/4
f 15/50/6 9/35/6 4/34/6 2/51/6 6/16/6 13/33/6
f 30/45/3 9/44/3 15/52/3 44/53/3
f 31/54/3 16/55/3 10/48/3 43/47/3
f 15/56/2 13/36/2 26/39/2 33/57/2 44/58/2
f 16/59/2 31/60/2 32/61/2 25/42/2 14/41/2
f 14/62/5 12/31/5 7/11/5 5/17/5 1/29/5 16/28/5
f 25/8/6 24/8/6 23/5/6 27/5/6
f 20/5/6 17/8/6 31/8/6 43/5/6
f 27/63/4 23/48/4 22/40/4 42/43/4
f 30/64/4 18/37/4 20/44/4 43/45/4
f 42/11/5 22/11/5 21/17/5 26/17/5
f 44/17/5 19/17/5 18/11/5 30/11/5
f 21/41/2 24/59/2 25/60/2 26/65/2
f 31/66/2 17/56/2 19/36/2 44/67/2
f 32/54/6 31/54/6 41/55/6 40/55/6 25/54/6
f 34/52/6 43/68/6 28/68/6 27/68/6 37/52/6
f 39/11/1 26/11/1 25/5/1 40/5/1
f 42/11/1 35/11/1 37/5/1 27/5/1
f 33/43/5 26/43/5 39/40/5 38/40/5 44/43/5
f 35/37/5 42/64/5 29/64/5 30/64/5 36/37/5
f 38/17/3 41/22/3 31/22/3 44/17/3
f 34/22/3 36/17/3 30/17/3 43/22/3
